<svg width="230px" height="90px" id="レイヤー_1" data-name="レイヤー 1" xmlns="http://www.w3.org/2000/svg" viewBox="0 0 230 90"><defs><style>.cls-1{fill:#fff;}.cls-2{fill:none;stroke:#e3e3e3;stroke-width:2px;}.cls-3{isolation:isolate;}.cls-4{fill:#7f1083;}</style></defs><g id="グループ_2922" data-name="グループ 2922"><g id="長方形_1294" data-name="長方形 1294"><rect class="cls-1" width="230" height="90" rx="12"/><rect class="cls-2" x="1" y="1" width="228" height="88" rx="11"/></g><g id="OFFICIAL_WEB_SITE" data-name="OFFICIAL WEB SITE" class="cls-3"><g class="cls-3"><path class="cls-4" d="M44.31,69.19a4.31,4.31,0,0,1-1.81-.38,4,4,0,0,1-1.42-1.1A5.18,5.18,0,0,1,40.16,66a7.29,7.29,0,0,1-.33-2.28,7.21,7.21,0,0,1,.33-2.26,5.13,5.13,0,0,1,.92-1.7,4,4,0,0,1,1.42-1.06,4.31,4.31,0,0,1,1.81-.37,4.36,4.36,0,0,1,1.82.38,4.13,4.13,0,0,1,1.42,1.07,4.88,4.88,0,0,1,.93,1.7,7.08,7.08,0,0,1,.33,2.24A7.29,7.29,0,0,1,48.48,66a5,5,0,0,1-.93,1.73,4.1,4.1,0,0,1-1.42,1.1A4.36,4.36,0,0,1,44.31,69.19Zm0-1.17a2.65,2.65,0,0,0,1.27-.3,2.79,2.79,0,0,0,1-.87,4.38,4.38,0,0,0,.63-1.36,6.53,6.53,0,0,0,.23-1.79,6.41,6.41,0,0,0-.23-1.76,4,4,0,0,0-.63-1.32,2.7,2.7,0,0,0-1-.84,2.65,2.65,0,0,0-1.27-.3,2.67,2.67,0,0,0-1.27.3,2.79,2.79,0,0,0-1,.84,4,4,0,0,0-.63,1.32,6.42,6.42,0,0,0-.22,1.76,6.55,6.55,0,0,0,.22,1.79,4.38,4.38,0,0,0,.63,1.36,2.88,2.88,0,0,0,1,.87A2.67,2.67,0,0,0,44.31,68Z"/><path class="cls-4" d="M52.66,69V58.5h6.05v1.12H54v3.56h4V64.3H54V69Z"/><path class="cls-4" d="M62.17,69V58.5h6v1.12H63.5v3.56h4V64.3h-4V69Z"/><path class="cls-4" d="M71.67,69V58.5H73V69Z"/><path class="cls-4" d="M81.45,69.19a4.44,4.44,0,0,1-1.83-.37,4.14,4.14,0,0,1-1.44-1.06,4.75,4.75,0,0,1-1-1.71,7.42,7.42,0,0,1-.34-2.3,7,7,0,0,1,.35-2.27,5.11,5.11,0,0,1,1-1.71,4.31,4.31,0,0,1,1.47-1.08,4.55,4.55,0,0,1,1.86-.38,3.47,3.47,0,0,1,1.68.39,4.61,4.61,0,0,1,1.2.91l-.72.86a3.32,3.32,0,0,0-1-.72,2.59,2.59,0,0,0-1.2-.27,3,3,0,0,0-1.36.3,3,3,0,0,0-1,.84A3.91,3.91,0,0,0,78.48,62a6,6,0,0,0-.23,1.76,6.1,6.1,0,0,0,.23,1.78,4.19,4.19,0,0,0,.65,1.36,2.78,2.78,0,0,0,1,.86,3,3,0,0,0,1.36.3,2.73,2.73,0,0,0,1.34-.31,4.34,4.34,0,0,0,1.09-.87l.73.83a4.42,4.42,0,0,1-1.41,1.12A3.85,3.85,0,0,1,81.45,69.19Z"/><path class="cls-4" d="M88.22,69V58.5h1.32V69Z"/><path class="cls-4" d="M92.63,69l3.55-10.5h1.51L101.24,69H99.81l-1-3.2H95L94,69Zm3.2-5.87-.5,1.6h3.16l-.5-1.6c-.19-.59-.37-1.17-.54-1.75s-.34-1.18-.51-1.79h-.07c-.16.61-.32,1.2-.49,1.79S96,62.54,95.83,63.13Z"/><path class="cls-4" d="M104.33,69V58.5h1.32v9.36h4.6V69Z"/><path class="cls-4" d="M119.65,69l-2.22-10.5h1.38l1.1,5.72c.1.57.2,1.14.3,1.69s.21,1.12.31,1.7h.06c.12-.58.24-1.15.37-1.71s.25-1.12.37-1.68l1.45-5.72H124l1.46,5.72c.12.55.25,1.11.38,1.68s.26,1.13.38,1.71h.07c.1-.58.19-1.15.29-1.71s.19-1.12.3-1.68L128,58.5h1.28L127.08,69h-1.6l-1.59-6.32c-.09-.41-.18-.8-.26-1.19s-.16-.79-.25-1.19h-.06l-.27,1.19c-.09.39-.17.78-.26,1.19L121.24,69Z"/><path class="cls-4" d="M132.68,69V58.5h6v1.12H134v3.3h4v1.14h-4v3.8h4.88V69Z"/><path class="cls-4" d="M142.71,69V58.5h3.12a6.62,6.62,0,0,1,1.46.15,3.09,3.09,0,0,1,1.14.45,2.08,2.08,0,0,1,.74.79,2.5,2.5,0,0,1,.26,1.17,2.63,2.63,0,0,1-.39,1.42,2,2,0,0,1-1.15.87v.07a2.7,2.7,0,0,1,1.56.8,2.38,2.38,0,0,1,.59,1.71,3,3,0,0,1-.29,1.34,2.45,2.45,0,0,1-.82,1,3.66,3.66,0,0,1-1.26.58,6.32,6.32,0,0,1-1.62.19ZM144,63h1.55a3.18,3.18,0,0,0,1.94-.47,1.53,1.53,0,0,0,.59-1.26,1.42,1.42,0,0,0-.62-1.3,3.6,3.6,0,0,0-1.85-.38H144Zm0,5h1.82a3.72,3.72,0,0,0,2.11-.5,1.74,1.74,0,0,0,.76-1.56,1.56,1.56,0,0,0-.74-1.43,4,4,0,0,0-2.13-.46H144Z"/><path class="cls-4" d="M161.43,69.19a5,5,0,0,1-3.68-1.55l.8-.93a4.2,4.2,0,0,0,1.32,1,3.65,3.65,0,0,0,1.58.36,2.43,2.43,0,0,0,1.61-.47,1.51,1.51,0,0,0,.58-1.24,1.59,1.59,0,0,0-.14-.68,1.55,1.55,0,0,0-.37-.48,2.91,2.91,0,0,0-.55-.36l-.69-.33-1.5-.66a6.61,6.61,0,0,1-.75-.38,2.83,2.83,0,0,1-.69-.55,2.57,2.57,0,0,1-.5-.76,2.64,2.64,0,0,1-.19-1,2.44,2.44,0,0,1,.25-1.11,2.71,2.71,0,0,1,.69-.89,3.18,3.18,0,0,1,1-.58,4,4,0,0,1,1.32-.21,4.31,4.31,0,0,1,3.1,1.3l-.72.86a3.79,3.79,0,0,0-1.06-.73,3.27,3.27,0,0,0-1.32-.26,2.3,2.3,0,0,0-1.42.41,1.35,1.35,0,0,0-.53,1.13,1.26,1.26,0,0,0,.15.64,1.53,1.53,0,0,0,.41.47,3.12,3.12,0,0,0,.56.35l.62.28,1.49.64a6.2,6.2,0,0,1,.85.44,3.2,3.2,0,0,1,.68.58,2.24,2.24,0,0,1,.46.76,3,3,0,0,1,.17,1,2.7,2.7,0,0,1-.25,1.17,2.86,2.86,0,0,1-.71.95,3.32,3.32,0,0,1-1.12.64A4.61,4.61,0,0,1,161.43,69.19Z"/><path class="cls-4" d="M168.66,69V58.5H170V69Z"/><path class="cls-4" d="M176.65,69V59.62h-3.17V58.5h7.68v1.12H178V69Z"/><path class="cls-4" d="M184.65,69V58.5h6v1.12H186v3.3h4v1.14h-4v3.8h4.88V69Z"/></g></g><g id="アートワーク_2" data-name="アートワーク 2"><g id="グループ_2460" data-name="グループ 2460"><g id="グループ_2458" data-name="グループ 2458"><path id="パス_4180" data-name="パス 4180" class="cls-4" d="M64.92,43.29c-.7,0-1.27.78-1.27,1.72h0v.08a1.52,1.52,0,0,0,1.27,1.64c.67,0,1.27-.77,1.27-1.72S65.61,43.29,64.92,43.29Z"/><path id="パス_4181" data-name="パス 4181" class="cls-4" d="M61.31,45.49V42.32L59,45.49Z"/><path id="パス_4182" data-name="パス 4182" class="cls-4" d="M39,48H68V18Zm23.65-2.34H62v1.1H61.3v-1.1H58.59L62,41.13v4.36h.7ZM65,46.88A1.92,1.92,0,0,1,63.05,45v-.07a6.16,6.16,0,0,1,.37-2.82,1.8,1.8,0,0,1,1.52-1,1.72,1.72,0,0,1,1.74,1.42h-.17a1.51,1.51,0,0,0-1.22-1.24c-1.05-.13-1.67,1-1.59,2.34A1.86,1.86,0,0,1,65,43a1.91,1.91,0,0,1,0,3.81Z"/></g><g id="グループ_2459" data-name="グループ 2459"><path id="パス_4183" data-name="パス 4183" class="cls-4" d="M172.62,42.07V26L160.29,42.75h10v4h2.39v-4h2.54v-.68Zm-11,0,8.59-11.62V42.07Z"/><path id="パス_4184" data-name="パス 4184" class="cls-4" d="M183.72,33.31a6.8,6.8,0,0,0-4.8,2h0c-.22-5,2-9,5.88-8.56a5.63,5.63,0,0,1,4.53,4.58l.67-.12a6.33,6.33,0,0,0-6.4-5.26,6.5,6.5,0,0,0-5.6,3.74c-1.1,2.24-1.57,4.93-1.32,10.28.2,4.68,3.36,7.32,7,7.32a7,7,0,0,0,0-14m-.18,13.27c-2.49,0-4.53-2.64-4.65-6v-.3h0c0-3.46,2.09-6.3,4.65-6.3s4.66,2.84,4.66,6.3-2.09,6.3-4.66,6.3"/><path id="パス_4185" data-name="パス 4185" class="cls-4" d="M118.47,26.24h-2.79v5.35H105.42v.53h4.41v.42c0,2.39-.07,6.87-1,9.84a10,10,0,0,1-2.91,4.7c2.06-.72,4.45-2,5.4-4.36s1.22-4.75,1.22-10.18v-.42h3.13V47.55h2.82V32.12h3.13v.42c0,5.43.2,7.64,1.22,10.18s3.32,3.64,5.4,4.36a10,10,0,0,1-2.91-4.7c-.92-3-1-7.42-1-9.84v-.42h4.43V31.6H118.47Z"/><path id="パス_4186" data-name="パス 4186" class="cls-4" d="M96.39,27.11H82.82s.4,12-.8,15.76A11.82,11.82,0,0,1,79,48a9.29,9.29,0,0,0,5.4-4.76c.94-2.31,1.22-8.86,1.22-15.21v-.42h7.81l-1.86,8.22h5.93v.42c0,1.82-.13,7.42-1.87,9.59-.72.9-2,1.34-3.83,1.34a10.39,10.39,0,0,1-1.37-.08,7.92,7.92,0,0,0,2.64.45,6.49,6.49,0,0,0,5.13-2.21c1.64-2,2.06-8.24,2.14-10H94.5Z"/><path id="パス_4187" data-name="パス 4187" class="cls-4" d="M140.83,38.84a7.24,7.24,0,0,1-2.05,1v-7.1h2.37v-.53h-2.37v-6h-2.49v6h-3.06v.52h3.06v7.69a18.4,18.4,0,0,1-3.06.25l.58,1.87c5.92-1.05,7-3.76,7-3.76"/><path id="パス_4188" data-name="パス 4188" class="cls-4" d="M145.71,28.08v-.42h10.75v-.52H143v.52h0v.42c.05,2.47.12,10.83-1,14.39a11.37,11.37,0,0,1-2.92,5.13,9.14,9.14,0,0,0,5.4-4.78c.65-1.57,1-4.33,1.15-8.69v-.4h7.14v.43A16.92,16.92,0,0,1,151,41.58a18.55,18.55,0,0,1-1.52-6l-3,.55A25,25,0,0,0,150.18,43a14.3,14.3,0,0,1-4.43,4.43,13.91,13.91,0,0,0,5.68-3.06,15,15,0,0,0,4.2,3.14,15.25,15.25,0,0,1-3.48-3.86,7.64,7.64,0,0,0,1-1.35,18.94,18.94,0,0,0,2.56-9.11h-10.1v-.45c0-1.52.05-3.08.05-4.7"/></g></g></g></g></svg>